<svg viewBox="0 0 200 200" xmlns="http://www.w3.org/2000/svg">
  <rect width="200" height="200" fill="#09090b"/>
  <g transform="translate(100,100)">
    <circle cx="0" cy="0" r="14" fill="none" stroke="rgba(255,255,255,0.9)" stroke-width="2.5"/>
    <circle cx="0" cy="0" r="8" fill="none" stroke="rgba(255,255,255,0.7)" stroke-width="2"/>
    <circle cx="0" cy="0" r="3" fill="rgba(255,255,255,0.4)"/>
    <g stroke="rgba(255,255,255,0.7)" stroke-width="1.5">
      <line x1="0" y1="-16" x2="0" y2="-65"/>
      <line x1="8" y1="-13.9" x2="32.5" y2="-56.3"/>
      <line x1="13.9" y1="-8" x2="56.3" y2="-32.5"/>
      <line x1="16" y1="0" x2="65" y2="0"/>
      <line x1="13.9" y1="8" x2="56.3" y2="32.5"/>
      <line x1="8" y1="13.9" x2="32.5" y2="56.3"/>
      <line x1="0" y1="16" x2="0" y2="65"/>
      <line x1="-8" y1="13.9" x2="-32.5" y2="56.3"/>
      <line x1="-13.9" y1="8" x2="-56.3" y2="32.5"/>
      <line x1="-16" y1="0" x2="-65" y2="0"/>
      <line x1="-13.9" y1="-8" x2="-56.3" y2="-32.5"/>
      <line x1="-8" y1="-13.9" x2="-32.5" y2="-56.3"/>
    </g>
    <g fill="rgba(255,255,255,0.8)">
      <circle cx="0" cy="-50" r="4"/>
      <circle cx="0" cy="-65" r="3"/>
      <circle cx="25" cy="-43" r="3.5"/>
      <circle cx="43" cy="-25" r="4"/>
      <circle cx="50" cy="0" r="3.5"/>
      <circle cx="65" cy="0" r="3"/>
      <circle cx="43" cy="25" r="4"/>
      <circle cx="25" cy="43" r="3.5"/>
      <circle cx="0" cy="50" r="4"/>
      <circle cx="0" cy="65" r="3"/>
      <circle cx="-25" cy="43" r="3.5"/>
      <circle cx="-43" cy="25" r="4"/>
      <circle cx="-50" cy="0" r="3.5"/>
      <circle cx="-65" cy="0" r="3"/>
      <circle cx="-43" cy="-25" r="4"/>
      <circle cx="-25" cy="-43" r="3.5"/>
    </g>
    <circle cx="0" cy="0" r="75" fill="none" stroke="rgba(255,255,255,0.15)" stroke-width="1.5"/>
  </g>
</svg>
